<svg xmlns="http://www.w3.org/2000/svg" xmlns:svg="http://www.w3.org/2000/svg" id="Capa_1" x="0" y="0" version="1.1" viewBox="0 0 481.72 481.72" xml:space="preserve" style="enable-background:new 0 0 481.72 481.72"><metadata id="metadata41"/><path id="path5" d="m 474.993,412.91 -83.7,-48.4 0.1,-151.2 c 0,-0.1 0,-0.1 0,-0.2 0,-0.1 0,-0.3 0,-0.4 0,-0.3 0,-0.5 -0.1,-0.8 0,-0.1 0,-0.2 0,-0.4 0,-0.4 -0.1,-0.7 -0.2,-1 0,-0.1 -0.1,-0.3 -0.1,-0.4 -0.1,-0.3 -0.1,-0.6 -0.2,-0.8 0,-0.1 -0.1,-0.2 -0.1,-0.3 -0.1,-0.4 -0.3,-0.7 -0.4,-1.1 0,-0.1 -0.1,-0.2 -0.1,-0.3 -0.2,-0.4 -0.3,-0.7 -0.5,-1.1 l 0,0 0,0 c -0.2,-0.3 -0.4,-0.7 -0.6,-1 -0.1,-0.1 -0.1,-0.2 -0.2,-0.3 -0.2,-0.3 -0.5,-0.6 -0.7,-0.9 -0.1,-0.1 -0.2,-0.2 -0.2,-0.2 -0.2,-0.2 -0.4,-0.4 -0.6,-0.6 -0.1,-0.1 -0.2,-0.2 -0.3,-0.3 -0.3,-0.2 -0.5,-0.5 -0.8,-0.7 -0.1,-0.1 -0.2,-0.2 -0.3,-0.2 -0.2,-0.1 -0.4,-0.3 -0.6,-0.4 -0.1,-0.1 -0.3,-0.2 -0.4,-0.2 l -0.1,-0.1 -131.5,-76 0,-95.9 c 0,-7.5 -6,-13.5 -13.5,-13.5 -7.5,0 -13.5,6 -13.5,13.5 l 0,96.7 -130.4,75.2 -0.1,0.1 c -0.1,0.1 -0.3,0.2 -0.4,0.2 -0.2,0.1 -0.4,0.3 -0.6,0.4 -0.1,0.1 -0.2,0.2 -0.3,0.2 -0.3,0.2 -0.5,0.4 -0.8,0.7 -0.1,0.1 -0.2,0.2 -0.3,0.3 -0.2,0.2 -0.4,0.4 -0.6,0.6 -0.1,0.1 -0.2,0.2 -0.2,0.2 -0.2,0.3 -0.5,0.6 -0.7,0.9 -0.1,0.1 -0.1,0.2 -0.2,0.3 -0.5,0.7 -0.9,1.4 -1.2,2.1 0,0.1 -0.1,0.2 -0.1,0.3 -0.2,0.3 -0.3,0.7 -0.4,1.1 0,0.1 -0.1,0.2 -0.1,0.3 -0.1,0.3 -0.2,0.6 -0.2,0.8 0,0.1 -0.1,0.3 -0.1,0.4 -0.1,0.3 -0.1,0.7 -0.2,1.1 0,0.1 0,0.2 0,0.4 0,0.3 0,0.5 -0.1,0.8 0,0.1 0,0.3 0,0.4 0,0.1 0,0.1 0,0.2 l -0.1,152.3 -82.5,47.6 c -6.5,3.7 -8.7,12 -5,18.4 2.5,4.3 7,6.8 11.7,6.8 2.3,0 4.6,-0.6 6.7,-1.8 l 83.4,-48.1 129.9,75.1 c 0,0 0.1,0 0.1,0.1 0.5,0.3 1,0.5 1.5,0.7 l 0.1,0 c 0.5,0.2 0.9,0.3 1.4,0.5 0.1,0 0.3,0.1 0.4,0.1 0.4,0.1 0.8,0.2 1.2,0.2 0.1,0 0.3,0 0.4,0.1 0.5,0.1 1.1,0.1 1.6,0.1 l 0,0 c 0.5,0 1.1,0 1.6,-0.1 0.1,0 0.3,0 0.4,-0.1 0.4,-0.1 0.8,-0.1 1.2,-0.2 0.1,0 0.3,-0.1 0.4,-0.1 0.5,-0.1 1,-0.3 1.4,-0.5 l 0.1,0 c 0.5,-0.2 1,-0.5 1.5,-0.7 0,0 0.1,0 0.1,-0.1 l 131,-75.5 83.7,48.4 c 2.1,1.2 4.5,1.8 6.7,1.8 4.7,0 9.2,-2.4 11.7,-6.7 3.6,-6.8 1.4,-15.1 -5,-18.8 z m -248.4,15.5 -110.6,-64 0.1,-127.8 110.6,64 -0.1,127.8 z m 13.5,-151.2 -110.6,-64 110.7,-63.8 110.6,64 -110.7,63.8 z m 124.2,87.3 -110.7,63.8 0.1,-127.8 110.6,-63.8 0,127.8 z" style="fill:#41818f;fill-opacity:1"/><g id="g4278"><path id="path4169" d="m 106.68642,341.47799 124.12696,66.39349" style="fill:none;fill-rule:evenodd;stroke:#41818f;stroke-width:10;stroke-linecap:butt;stroke-linejoin:miter;stroke-miterlimit:4;stroke-dasharray:none;stroke-opacity:1"/><path id="path4169-2" d="m 112.79176,317.14508 124.12696,66.39349" style="fill:none;fill-rule:evenodd;stroke:#41818f;stroke-width:10;stroke-linecap:butt;stroke-linejoin:miter;stroke-miterlimit:4;stroke-dasharray:none;stroke-opacity:1"/><path id="path4169-6" d="m 110.58093,285.98487 124.12696,66.39349" style="fill:none;fill-rule:evenodd;stroke:#41818f;stroke-width:10;stroke-linecap:butt;stroke-linejoin:miter;stroke-miterlimit:4;stroke-dasharray:none;stroke-opacity:1"/><path id="path4169-4" d="m 113.10743,259.87766 124.12696,66.39349" style="fill:none;fill-rule:evenodd;stroke:#41818f;stroke-width:10;stroke-linecap:butt;stroke-linejoin:miter;stroke-miterlimit:4;stroke-dasharray:none;stroke-opacity:1"/><path id="path4240" d="m 133.57337,235.17793 -0.74876,155.05229" style="fill:none;fill-rule:evenodd;stroke:#41818f;stroke-width:10;stroke-linecap:butt;stroke-linejoin:miter;stroke-miterlimit:4;stroke-dasharray:none;stroke-opacity:1"/><path id="path4240-0" d="m 155.20505,253.82945 -0.74876,155.0523" style="fill:none;fill-rule:evenodd;stroke:#41818f;stroke-width:10;stroke-linecap:butt;stroke-linejoin:miter;stroke-miterlimit:4;stroke-dasharray:none;stroke-opacity:1"/><path id="path4240-0-2" d="m 178.42966,266.03725 -0.74876,155.0523" style="fill:none;fill-rule:evenodd;stroke:#41818f;stroke-width:10;stroke-linecap:butt;stroke-linejoin:miter;stroke-miterlimit:4;stroke-dasharray:none;stroke-opacity:1"/><path id="path4240-0-9" d="m 204.33402,278.24505 -0.74876,155.05231" style="fill:none;fill-rule:evenodd;stroke:#41818f;stroke-width:10;stroke-linecap:butt;stroke-linejoin:miter;stroke-miterlimit:4;stroke-dasharray:none;stroke-opacity:1"/></g></svg>